{"title":"Midsomer Murders S18E01 - Habea Corpus x264 RB58.mp4","uid":13164879,"size":1016762770,"categoryP":"video","categoryS":"tv_shows","magnet":"?xt=urn:btih:57b07117de7800d9c1884ece1523c85a0a22724e&amp;dn=Midsomer+Murders+S18E01+-+Habea+Corpus+x264+RB58.mp4&amp;tr=udp%3A%2F%2Ftracker.leechers-paradise.org%3A6969&amp;tr=udp%3A%2F%2Fzer0day.ch%3A1337&amp;tr=udp%3A%2F%2Fopen.demonii.com%3A1337&amp;tr=udp%3A%2F%2Ftracker.coppersurfer.tk%3A6969&amp;tr=udp%3A%2F%2Fexodus.desync.com%3A6969","seeders":0,"leechers":1,"uploader":"RedBaron58","files":1,"time":1452194321,"description":"Midsomer Murders S18E01 - Habeas Corpus x264 mp4\r\n \nhttp://www.imdb.com/title/tt0118401/\r\n\r\n\r\nPlease be patient My intial upload speed is limited.\r\nThank you for your kind comments and feedback on my other torrents, your feedback is welcome.\r\n\r\n\r\nAbout the Episode:\r\nWhen wealthy landowner Gregory Lancaster's body goes missing on the night of his death, \r\na sinister web of secrets and lies is exposed in the village of Little Malton. \r\nAs DCI Barnaby, DS Nelson and new forensic pathologist Kam Karimore investigate the mysterious crime, \r\nthey find themselves drawn into a macabre world of body-snatching during their quest to identify \r\nthe perpetrator. \r\n \r\nStarring Neil Dudgeon, Gwilym Lee, Manjinder Virk, Helen Baxendale and Navin Chowdhry\r\n\r\n\r\nI hope you enjoy.\r\n\r\n\r\nTechnical:\r\n\r\nGeneral\r\nComplete name                            : G:Midsomer Murders S18E01 - Habea Corpus x264 RB58.mp4\r\nFormat                                   : MPEG-4\r\nFormat profile                           : Base Media\r\nCodec ID                                 : isom\r\nFile size                                : 970 MiB\r\nDuration                                 : 1h 28mn\r\nOverall bit rate                         : 1 524 Kbps\r\nWriting application                      : Lavf54.63.104\r\n\r\nVideo\r\nID                                       : 1\r\nFormat                                   : AVC\r\nFormat/Info                              : Advanced Video Codec\r\nFormat profile                           :   \r\nFormat settings, CABAC                   : Yes\r\nFormat settings, ReFrames                : 4 frames\r\nCodec ID                                 : avc1\r\nCodec ID/Info                            : Advanced Video Coding\r\nDuration                                 : 1h 28mn\r\nBit rate                                 : 1 400 Kbps\r\nWidth                                    : 832 pixels\r\nHeight                                   : 468 pixels\r\nDisplay aspect ratio                     : 16:9\r\nFrame rate mode                          : Constant\r\nFrame rate                               : 25.000 fps\r\nColor space                              : YUV\r\nChroma subsampling                       : 4:2:0\r\nBit depth                                : 8 bits\r\nScan type                                : Progressive\r\nBits/(Pixel*Frame)                       : 0.144\r\nStream size                              : 891 MiB (92%)\r\nWriting library                          : x264 core 123 r2189 35cf912\r\nEncoding settings                        : cabac=1 / ref=3 / deblock=1:0:0\r\n\r\nAudio\r\nID                                       : 2\r\nFormat                                   : AAC\r\nFormat/Info                              : Advanced Audio Codec\r\nFormat profile                           : LC\r\nCodec ID                                 : 40\r\nDuration                                 : 1h 28mn\r\nBit rate mode                            : Constant\r\nBit rate                                 : 115 Kbps\r\nChannel(s)                               : 2 channels\r\nChannel positions                        : Front: L R\r\nSampling rate                            : 48.0 KHz\r\nCompression mode                         : Lossy\r\nStream size                              : 73.4 MiB (8%)","torrent":{"xt":"urn:btih:57b07117de7800d9c1884ece1523c85a0a22724e","amp;dn":"Midsomer+Murders+S18E01+-+Habea+Corpus+x264+RB58.mp4","amp;tr":["udp%3A%2F%2Ftracker.leechers-paradise.org%3A6969","udp%3A%2F%2Fzer0day.ch%3A1337","udp%3A%2F%2Fopen.demonii.com%3A1337","udp%3A%2F%2Ftracker.coppersurfer.tk%3A6969","udp%3A%2F%2Fexodus.desync.com%3A6969"],"infoHash":"57b07117de7800d9c1884ece1523c85a0a22724e","infoHashBuffer":{"type":"Buffer","data":[87,176,113,23,222,120,0,217,193,136,78,206,21,35,200,90,10,34,114,78]},"announce":[],"urlList":[]}}